<svg width="21" height="21" viewBox="0 0 21 21" fill="none" xmlns="http://www.w3.org/2000/svg">
<path fill-rule="evenodd" clip-rule="evenodd" d="M9.65625 16.4198L9.60225 10.5H7.54688V8.8125H11.5986L11.6492 14.7323H13.5375V16.4198H9.65625ZM9.23438 5.95388C9.2223 5.59663 9.34727 5.24829 9.58369 4.98019C9.81487 4.722 10.1473 4.59375 10.5793 4.59375C11.0113 4.59375 11.3454 4.722 11.5817 4.98187C11.8179 5.23838 11.9344 5.56406 11.9344 5.95388C11.9344 6.33863 11.8163 6.65756 11.58 6.91237C11.3438 7.1655 11.0113 7.29375 10.5793 7.29375C10.1473 7.29375 9.81487 7.16719 9.58369 6.91237C9.34792 6.64993 9.22275 6.30648 9.23438 5.95388ZM10.5 18.9375C12.7378 18.9375 14.8839 18.0486 16.4662 16.4662C18.0486 14.8839 18.9375 12.7378 18.9375 10.5C18.9375 8.26224 18.0486 6.11612 16.4662 4.53379C14.8839 2.95145 12.7378 2.0625 10.5 2.0625C8.26224 2.0625 6.11612 2.95145 4.53379 4.53379C2.95145 6.11612 2.0625 8.26224 2.0625 10.5C2.0625 12.7378 2.95145 14.8839 4.53379 16.4662C6.11612 18.0486 8.26224 18.9375 10.5 18.9375ZM10.5 20.625C9.17037 20.625 7.85375 20.3631 6.62533 19.8543C5.39691 19.3455 4.28074 18.5996 3.34054 17.6595C2.40035 16.7193 1.65455 15.6031 1.14572 14.3747C0.636891 13.1462 0.375 11.8296 0.375 10.5C0.375 9.17037 0.636891 7.85375 1.14572 6.62533C1.65455 5.39691 2.40035 4.28074 3.34054 3.34054C4.28074 2.40035 5.39691 1.65455 6.62533 1.14572C7.85375 0.636891 9.17037 0.375 10.5 0.375C13.1853 0.375 15.7606 1.44174 17.6595 3.34054C19.5583 5.23935 20.625 7.81468 20.625 10.5C20.625 13.1853 19.5583 15.7606 17.6595 17.6595C15.7606 19.5583 13.1853 20.625 10.5 20.625Z" fill="white"/>
</svg>
