<svg width="49" height="49" viewBox="0 0 49 49" fill="none" xmlns="http://www.w3.org/2000/svg">
<g clip-path="url(#clip0_23_12)">
<path d="M26.087 3.12069C25.5621 3.08194 25.036 3.06253 24.5098 3.0625V0C25.1117 0.000293472 25.7133 0.0227671 26.3136 0.067375L26.087 3.12069ZM32.2242 4.49881C31.2425 4.11996 30.2343 3.81391 29.2076 3.58312L29.8783 0.594125C31.0543 0.8575 32.2038 1.20662 33.3267 1.6415L32.2242 4.49881ZM36.4198 6.67319C35.982 6.38115 35.5335 6.10534 35.0754 5.84631L36.5852 3.18194C37.6324 3.77502 38.6345 4.44445 39.5834 5.18481L37.7 7.60113C37.2847 7.27722 36.8578 6.96871 36.4198 6.67625V6.67319ZM42.0365 12.1551C41.4306 11.2945 40.7622 10.4797 40.0366 9.71731L42.2539 7.60419C43.0828 8.48006 43.8454 9.40902 44.5416 10.3911L42.0365 12.1551ZM44.315 16.2956C44.1141 15.8099 43.8955 15.3319 43.6596 14.8623L46.3944 13.4842C46.935 14.5595 47.3956 15.6732 47.7725 16.8162L44.8631 17.7747C44.6986 17.2751 44.5158 16.7817 44.315 16.2956ZM45.9381 23.9732C45.9132 22.9208 45.8109 21.8716 45.6318 20.8342L48.6484 20.3136C48.8526 21.4977 48.971 22.6921 49.0036 23.8967L45.9381 23.9732ZM45.5369 28.6834C45.639 28.1648 45.7217 27.6442 45.785 27.1215L48.826 27.4982C48.6784 28.693 48.443 29.8752 48.1216 31.0354L45.1694 30.2177C45.3103 29.7134 45.4328 29.202 45.5369 28.6834ZM42.6214 35.9691C43.1849 35.0789 43.681 34.152 44.1098 33.1883L46.9089 34.4286C46.4189 35.5311 45.8523 36.5907 45.2092 37.6075L42.6214 35.9691ZM39.6691 39.6594C40.0428 39.2857 40.4001 38.8999 40.741 38.5017L43.0624 40.5016C42.6694 40.9575 42.2598 41.3988 41.8343 41.8246L39.6691 39.6594Z" fill="white"/>
<path d="M24.5096 3.0625C20.9843 3.06275 17.5134 3.93239 14.4045 5.59439C11.2955 7.25638 8.64443 9.65944 6.68599 12.5907C4.72756 15.522 3.52224 18.891 3.17679 22.3993C2.83134 25.9077 3.35642 29.447 4.70553 32.704C6.05464 35.9609 8.18614 38.8349 10.9112 41.0713C13.6363 43.3078 16.8709 44.8377 20.3284 45.5255C23.786 46.2133 27.3598 46.0378 30.7334 45.0146C34.1069 43.9914 37.176 42.152 39.6689 39.6594L41.8341 41.8246C38.9852 44.6751 35.4771 46.7789 31.6208 47.9495C27.7645 49.1202 23.6789 49.3217 19.7261 48.536C15.7733 47.7503 12.0754 46.0018 8.95987 43.4453C5.84437 40.8889 3.40752 37.6034 1.86524 33.8801C0.322963 30.1568 -0.277125 26.1105 0.118145 22.0998C0.513415 18.0891 1.89184 14.2379 4.13129 10.8872C6.37073 7.53662 9.40206 4.79009 12.9567 2.89101C16.5113 0.991929 20.4795 -0.00106799 24.5096 8.61966e-07V3.0625Z" fill="white"/>
<path d="M22.9785 9.1875C23.3846 9.1875 23.7741 9.34883 24.0613 9.63599C24.3484 9.92316 24.5098 10.3126 24.5098 10.7187V26.6744L34.4568 32.3584C34.7991 32.5649 35.0471 32.8972 35.1478 33.2841C35.2484 33.6711 35.1937 34.0821 34.9953 34.4292C34.7969 34.7764 34.4706 35.0322 34.0862 35.1419C33.7017 35.2517 33.2895 35.2067 32.9378 35.0166L22.219 28.8916C21.9847 28.7578 21.7898 28.5643 21.6543 28.3309C21.5188 28.0975 21.4474 27.8324 21.4473 27.5625V10.7187C21.4473 10.3126 21.6086 9.92316 21.8958 9.63599C22.1829 9.34883 22.5724 9.1875 22.9785 9.1875Z" fill="white"/>
</g>
<defs>
<clipPath id="clip0_23_12">
<rect width="49" height="49" fill="white"/>
</clipPath>
</defs>
</svg>
