<svg width="30" height="30" viewBox="0 0 30 30" fill="none" xmlns="http://www.w3.org/2000/svg">
<path d="M15 3.75C12.775 3.75 10.5999 4.4098 8.74984 5.64597C6.89979 6.88213 5.45785 8.63914 4.60636 10.6948C3.75487 12.7505 3.53209 15.0125 3.96617 17.1948C4.40025 19.3771 5.47171 21.3816 7.04505 22.955C8.61839 24.5283 10.623 25.5998 12.8052 26.0338C14.9875 26.4679 17.2495 26.2451 19.3052 25.3936C21.3609 24.5422 23.1179 23.1002 24.354 21.2502C25.5902 19.4001 26.25 17.225 26.25 15C26.25 12.0163 25.0647 9.15483 22.955 7.04505C20.8452 4.93526 17.9837 3.75 15 3.75ZM15 23.75C13.2694 23.75 11.5777 23.2368 10.1388 22.2754C8.69984 21.3139 7.57833 19.9473 6.91606 18.3485C6.25379 16.7496 6.08051 14.9903 6.41813 13.293C6.75575 11.5956 7.58911 10.0365 8.81282 8.81282C10.0365 7.58911 11.5956 6.75575 13.293 6.41813C14.9903 6.08051 16.7496 6.25379 18.3485 6.91605C19.9473 7.57832 21.3139 8.69983 22.2754 10.1388C23.2368 11.5777 23.75 13.2694 23.75 15C23.75 17.3206 22.8281 19.5462 21.1872 21.1872C19.5462 22.8281 17.3206 23.75 15 23.75Z" fill="white"/>
<path d="M20 13.75H16.25V10C16.25 9.66848 16.1183 9.35054 15.8839 9.11612C15.6495 8.8817 15.3315 8.75 15 8.75C14.6685 8.75 14.3505 8.8817 14.1161 9.11612C13.8817 9.35054 13.75 9.66848 13.75 10V13.75H10C9.66848 13.75 9.35054 13.8817 9.11612 14.1161C8.8817 14.3505 8.75 14.6685 8.75 15C8.75 15.3315 8.8817 15.6495 9.11612 15.8839C9.35054 16.1183 9.66848 16.25 10 16.25H13.75V20C13.75 20.3315 13.8817 20.6495 14.1161 20.8839C14.3505 21.1183 14.6685 21.25 15 21.25C15.3315 21.25 15.6495 21.1183 15.8839 20.8839C16.1183 20.6495 16.25 20.3315 16.25 20V16.25H20C20.3315 16.25 20.6495 16.1183 20.8839 15.8839C21.1183 15.6495 21.25 15.3315 21.25 15C21.25 14.6685 21.1183 14.3505 20.8839 14.1161C20.6495 13.8817 20.3315 13.75 20 13.75Z" fill="white"/>
</svg>
